<?xml version="1.0" encoding="UTF-8" standalone="no"?>
<!DOCTYPE svg PUBLIC "-//W3C//DTD SVG 1.1//EN" "http://www.w3.org/Graphics/SVG/1.1/DTD/svg11.dtd">
<svg width="100%" height="100%" viewBox="0 0 232 68" version="1.1" xmlns="http://www.w3.org/2000/svg" xmlns:xlink="http://www.w3.org/1999/xlink" xml:space="preserve" xmlns:serif="http://www.serif.com/" style="fill-rule:evenodd;clip-rule:evenodd;stroke-linecap:round;stroke-linejoin:round;stroke-miterlimit:1.5;">
    <g transform="matrix(0.0863586,0,0,0.0724432,-11.0001,-3.09091)">
        <path d="M369.077,958.237L362.522,831.741L273.952,761.383L233.055,623.42L201.842,88.148L296.712,74.053L339.177,184.042L363.377,414.765L405.942,390.132L420.681,296.697L483.784,282.142L564.406,296.533L607.963,285.034L667.715,299.757L712.069,135.504L762.201,112.111L821.135,138.269C821.135,138.269 788.074,591.356 788.074,606.38C788.074,621.404 757.916,808.412 757.916,808.412L660.77,882.702L653.863,958.311L369.077,958.237Z" style="fill:white;stroke:black;stroke-width:12.55px;"/>
    </g>
    <g transform="matrix(0.0863586,0,0,0.0724432,-11.0001,-3.09091)">
        <path d="M214.262,637.798C213.815,631.478 213.589,625.099 213.589,618.667L213.589,576L176.725,134.997C174.787,111.239 182.849,87.718 198.955,70.144C215.139,52.667 237.897,42.703 261.717,42.667C306.219,42.667 342.699,76.117 346.624,120.448L369.695,382.59C374.404,379.222 379.269,376.271 384.256,373.747L384.256,341.333C384.256,294.272 422.528,256 469.589,256C495.052,256 517.942,267.204 533.589,284.942C536.43,281.722 539.509,278.717 542.8,275.955C545.85,273.391 549.068,271.053 552.424,268.954C560.548,263.867 569.586,260.109 579.232,257.987C585.214,256.665 591.369,255.981 597.599,255.981C605.435,255.981 613.14,257.062 620.523,259.128C624.857,260.339 629.054,261.883 633.082,263.733C643.241,268.39 652.469,275.036 660.164,283.366C662.273,285.641 664.261,288.032 666.115,290.527L677.717,162.603C681.453,118.985 718.506,85.129 762.283,85.333C786.242,85.283 809.148,95.326 825.344,112.981C841.387,130.517 849.365,154.197 847.232,177.877L810.837,577.877L810.923,703.957C810.923,787.371 758.016,863.147 682.923,890.325L682.923,960C682.923,971.703 673.292,981.333 661.589,981.333L362.923,981.333C351.22,981.333 341.589,971.703 341.589,960L341.589,843.989C267.66,797.256 222.564,725.935 214.793,644.209C214.413,642.623 214.211,640.97 214.211,639.275C214.211,638.781 214.228,638.289 214.262,637.798ZM330.697,426.778L304.043,124.245C302.31,102.313 283.717,85.221 261.717,85.333C249.643,85.333 238.549,90.197 230.357,99.072C222.165,107.947 218.24,119.424 219.264,131.456L255.081,561.141L330.697,426.778ZM512.213,341.333C512.21,317.93 492.95,298.673 469.547,298.673C446.143,298.673 426.884,317.93 426.88,341.333L426.88,362.853C427.01,362.85 427.14,362.847 427.27,362.845C427.939,362.795 428.583,362.795 429.227,362.795C442.158,362.795 454.953,365.402 467.409,370.582C471.976,372.469 476.507,374.707 480.981,377.301C490.999,383.075 499.897,389.442 507.637,396.286C509.208,397.674 510.734,399.083 512.213,400.512L512.213,341.333ZM257.589,643.669C265.254,714.562 305.779,774.244 373.632,813.525C380.208,817.342 384.265,824.397 384.256,832L384.256,938.667L640.256,938.667L640.256,874.667C640.258,864.972 646.869,856.44 656.256,854.016C720.085,837.461 768.256,772.992 768.256,704L768.256,576L804.693,174.08C805.814,162.251 801.856,150.486 793.813,141.739C785.844,132.942 774.494,127.943 762.624,128C740.755,127.762 722.162,144.613 720.256,166.4L682.916,577.052C682.35,623.589 644.257,661.333 597.589,661.333C572.118,661.333 549.222,650.122 533.574,632.374C517.921,650.117 495.029,661.333 469.589,661.333L469.589,682.667C469.589,694.37 459.959,704 448.256,704C436.553,704 426.923,694.37 426.923,682.667L426.923,612.736L493.952,501.035C519.125,457.344 483.285,427.904 459.605,414.293C444.22,405.371 428.591,403.171 413.275,407.933C412.922,408.071 412.565,408.2 412.203,408.32C396.416,413.483 382.037,425.728 370.645,443.691C370.07,444.579 369.435,445.417 368.746,446.199C368.466,446.67 368.188,447.142 367.915,447.616L257.589,643.669ZM512.256,576L512.256,575.957L512.256,553.473L473.254,618.45C495.067,616.599 512.234,598.24 512.256,576ZM554.923,341.333L554.923,576C554.926,599.404 574.186,618.66 597.589,618.66C620.622,618.66 639.641,600.009 640.241,577.11C640.222,576.742 640.213,576.372 640.213,576L640.213,341.333C640.21,317.93 620.95,298.673 597.547,298.673C595.382,298.673 593.253,298.838 591.171,299.155C570.763,302.289 554.923,320.107 554.923,341.333Z" style="fill:rgb(4,4,4);stroke:black;stroke-width:12.55px;stroke-linecap:butt;stroke-miterlimit:2;"/>
    </g>
    <g transform="matrix(2.99389,0,0,2.99389,-213.134,-62.9192)">
        <g transform="matrix(12,0,0,12,148.443,37.8611)">
        </g>
        <text x="94.569px" y="37.861px" style="font-family:'Chalkduster', cursive;font-size:12px;fill:white;">L<tspan x="101.809px 110.083px " y="37.861px 37.861px ">a </tspan>Lis<tspan x="134.812px 140.169px " y="37.861px 37.861px ">ta</tspan></text>
    </g>
</svg>
